<svg xmlns="http://www.w3.org/2000/svg" width="1000" height="365" viewBox="0 0 1000 365" version="1.1"><path d="M 243.500 1.538 C 208.459 5.378, 183.583 14.310, 169.950 27.948 C 158.321 39.581, 159.575 21.610, 158.986 185 L 158.473 327.500 156.292 335.192 C 152.784 347.566, 147.800 355.770, 140.321 361.481 L 135.712 365 149.728 365 C 161.319 365, 165.452 364.571, 173.622 362.522 C 196.317 356.830, 213.626 344.629, 221.443 328.812 L 225.192 321.226 225.751 216.113 L 226.309 111 260.655 111 L 295 111 295 97 L 295 83 260.500 83 L 226 83 226 64.038 C 226 47.582, 226.262 44.376, 227.981 39.788 C 233.121 26.068, 252.569 12.298, 278.500 4.018 C 284 2.262, 288.950 0.675, 289.500 0.491 C 292.374 -0.467, 253.780 0.411, 243.500 1.538 M 48.954 5.926 C 23.373 14.431, 7.094 26.114, 2.054 39.586 C 0.018 45.026, 0 46.317, 0 183.378 L 0 321.681 3.054 327.792 C 7.510 336.710, 18.425 346.563, 30.263 352.353 C 48.237 361.146, 66.609 365.019, 90 364.945 L 105.500 364.896 99.092 362.517 C 86.622 357.887, 75.293 348.403, 70.139 338.280 C 64.886 327.964, 65 330.653, 65 216.790 L 65 111 105 111 L 145 111 145 97 L 145 83 105 83 L 65 83 65 42.500 L 65 2 62.750 2.044 C 61.513 2.068, 55.305 3.815, 48.954 5.926 M 308.457 42.500 C 308.456 65.050, 308.588 74.418, 308.749 63.317 C 308.909 52.216, 308.910 33.766, 308.749 22.317 C 308.589 10.868, 308.457 19.950, 308.457 42.500 M 462 12.980 L 462 17 470.500 17 L 479 17 479 51 L 479 85 483.500 85 L 488 85 488 51 L 488 17 496.560 17 L 505.121 17 504.810 13.250 L 504.500 9.500 483.250 9.230 L 462 8.960 462 12.980 M 512 46.943 L 512 85 516.500 85 L 521 85 521 67.500 L 521 50 539.500 50 L 558 50 558 67.500 L 558 85 562.500 85 L 567 85 567 47 L 567 9 562.500 9 L 558 9 558 25.500 L 558 42 539.525 42 L 521.050 42 520.775 25.750 L 520.500 9.500 516.250 9.193 L 512 8.885 512 46.943 M 582 46.980 L 582 85 603 85 L 624 85 624 81.500 L 624 78 607.500 78 L 591 78 591 64.500 L 591 51 607 51 L 623 51 623 47 L 623 43 607 43 L 591 43 591 30 L 591 17 607.560 17 L 624.121 17 623.810 13.250 L 623.500 9.500 602.750 9.230 L 582 8.959 582 46.980 M 460.455 142.500 C 460.455 163.950, 460.587 172.583, 460.749 161.684 C 460.911 150.785, 460.910 133.235, 460.748 122.684 C 460.587 112.133, 460.454 121.050, 460.455 142.500 M 511.455 143 C 511.455 164.725, 511.587 173.612, 511.749 162.750 C 511.910 151.887, 511.910 134.112, 511.749 123.250 C 511.587 112.387, 511.455 121.275, 511.455 143 M 519.455 142.500 C 519.455 163.950, 519.587 172.583, 519.749 161.684 C 519.911 150.785, 519.910 133.235, 519.748 122.684 C 519.587 112.133, 519.454 121.050, 519.455 142.500 M 754.451 139 C 754.451 158.525, 754.585 166.513, 754.748 156.750 C 754.912 146.988, 754.912 131.013, 754.748 121.250 C 754.585 111.488, 754.451 119.475, 754.451 139 M 308.972 110.750 C 308.957 111.162, 308.936 148.400, 308.925 193.500 C 308.915 238.600, 308.535 287.875, 308.081 303 C 307.353 327.233, 306.991 331.332, 305.032 337.500 C 301.908 347.334, 297.826 354.045, 291.386 359.930 L 285.839 365 298.854 365 C 312.726 365, 320.746 363.724, 332.745 359.608 C 351.471 353.184, 365.468 341.669, 372.380 327 C 374.493 322.515, 374.501 322.153, 374.768 216.250 L 375.035 110 342.018 110 C 323.858 110, 308.987 110.338, 308.972 110.750 M 469.389 126.500 C 469.390 133.650, 469.550 136.444, 469.742 132.708 C 469.935 128.973, 469.934 123.123, 469.739 119.708 C 469.545 116.294, 469.387 119.350, 469.389 126.500 M 469.411 164 C 469.411 173.625, 469.561 177.563, 469.745 172.750 C 469.928 167.937, 469.928 160.062, 469.745 155.250 C 469.561 150.438, 469.411 154.375, 469.411 164 M 470.454 233 C 470.454 254.175, 470.587 262.838, 470.749 252.250 C 470.911 241.663, 470.911 224.338, 470.749 213.750 C 470.587 203.163, 470.454 211.825, 470.454 233 M 485.454 233 C 485.454 254.175, 485.587 262.838, 485.749 252.250 C 485.911 241.663, 485.911 224.338, 485.749 213.750 C 485.587 203.163, 485.454 211.825, 485.454 233 M 536.779 225.001 C 536.625 241.501, 536.837 255.001, 537.250 255.001 C 537.663 255, 538 241.500, 538 225 C 538 208.500, 537.788 195, 537.529 195 C 537.269 195, 536.932 208.500, 536.779 225.001 M 821.454 232.500 C 821.453 253.400, 821.586 262.092, 821.748 251.816 C 821.911 241.540, 821.911 224.440, 821.749 213.816 C 821.587 203.192, 821.454 211.600, 821.454 232.500 M 650.392 215 C 650.392 222.425, 650.549 225.463, 650.742 221.750 C 650.934 218.037, 650.934 211.963, 650.742 208.250 C 650.549 204.537, 650.392 207.575, 650.392 215 M 788.450 236 C 788.450 254.975, 788.584 262.738, 788.748 253.250 C 788.913 243.762, 788.913 228.238, 788.748 218.750 C 788.584 209.262, 788.450 217.025, 788.450 236 M 493.447 239 C 493.447 256.875, 493.582 264.188, 493.748 255.250 C 493.914 246.313, 493.914 231.688, 493.748 222.750 C 493.582 213.813, 493.447 221.125, 493.447 239 M 703.447 239 C 703.447 256.875, 703.582 264.188, 703.748 255.250 C 703.914 246.313, 703.914 231.688, 703.748 222.750 C 703.582 213.813, 703.447 221.125, 703.447 239 M 557.320 233 C 557.320 236.575, 557.502 238.037, 557.723 236.250 C 557.945 234.463, 557.945 231.537, 557.723 229.750 C 557.502 227.963, 557.320 229.425, 557.320 233 M 650.395 249.500 C 650.396 257.200, 650.553 260.218, 650.743 256.206 C 650.934 252.195, 650.932 245.895, 650.741 242.206 C 650.549 238.518, 650.393 241.800, 650.395 249.500 M 491.186 284.077 C 466.198 288.428, 451.951 313.491, 460.962 337.247 C 464.125 345.586, 471.389 353.095, 480.790 357.741 C 488.219 361.412, 488.654 361.499, 499.448 361.462 C 509.257 361.429, 511.147 361.125, 516.253 358.766 C 523.588 355.376, 531.902 347.526, 535.315 340.768 C 537.938 335.573, 540.234 326.567, 539.198 325.532 C 538.906 325.239, 527.042 325, 512.833 325 L 487 325 487 329 L 487 333 507.948 333 L 528.896 333 527.867 335.951 C 526.280 340.505, 519.774 347.261, 513.894 350.461 C 506.403 354.538, 495.964 355.125, 487.531 351.944 C 466.418 343.980, 460.581 316.547, 476.618 300.652 C 489.455 287.928, 510.170 288.298, 521.754 301.458 C 525.414 305.616, 526.143 306, 530.376 306 C 532.919 306, 535 305.638, 535 305.196 C 535 304.753, 533.673 302.300, 532.052 299.743 C 524.752 288.232, 506.815 281.355, 491.186 284.077 M 639.251 284.496 C 618.750 289.015, 605.158 307.893, 607.988 327.914 C 609.869 341.223, 618.218 352.366, 630.759 358.307 C 636.967 361.248, 638.290 361.497, 647.500 361.465 C 655.548 361.436, 658.635 360.978, 663.317 359.118 C 671.482 355.873, 680.834 346.934, 684.603 338.773 C 687.190 333.172, 687.499 331.429, 687.493 322.500 C 687.488 314.239, 687.093 311.644, 685.224 307.580 C 677.198 290.125, 657.831 280.401, 639.251 284.496 M 549 323 L 549 361 553.500 361 L 558 361 558 327 L 558 293 567.750 293.006 C 579.321 293.012, 584.006 294.140, 588.264 297.945 C 591.129 300.505, 591.458 301.410, 591.815 307.731 C 592.515 320.126, 588.241 324.075, 572.387 325.679 L 564.274 326.500 577.120 343.750 L 589.966 361 594.983 361 C 597.742 361, 600 360.701, 600 360.337 C 600 359.972, 595.487 353.663, 589.971 346.316 C 583.724 337.995, 580.425 332.807, 581.221 332.556 C 581.925 332.334, 584.300 331.612, 586.500 330.952 C 596.275 328.020, 601.275 320.810, 601.375 309.500 C 601.486 296.904, 595.996 289.681, 583.856 286.449 C 580.384 285.525, 573.312 285.020, 563.750 285.012 L 549 285 549 323 M 699 312.318 C 699 344.798, 699.558 347.837, 706.861 355.137 C 712.060 360.334, 716.460 361.986, 725.124 361.994 C 736.565 362.006, 745.256 356.278, 749.006 346.253 C 750.823 341.397, 751 338.446, 751 312.962 L 751 285 746.556 285 L 742.113 285 741.806 313.750 C 741.520 340.644, 741.367 342.726, 739.446 345.997 C 736.216 351.496, 731.695 354, 725 354 C 718.305 354, 713.784 351.496, 710.554 345.997 C 708.633 342.726, 708.480 340.644, 708.194 313.750 L 707.887 285 703.444 285 L 699 285 699 312.318 M 766 323.057 L 766 361.115 770.250 360.807 L 774.500 360.500 774.776 345.250 L 775.052 330 786.848 330 C 803.479 330, 810.211 327.294, 814.575 318.855 C 818.848 310.592, 816.810 296.674, 810.517 291.149 C 804.995 286.301, 798.817 285, 781.318 285 L 766 285 766 323.057 M 640.186 292.513 C 621.900 297.601, 612.371 316.552, 619.081 334.487 C 621.846 341.878, 629.239 349.191, 636.851 352.065 C 644.149 354.820, 654.363 354.392, 661 351.052 C 684.365 339.296, 684.926 306.757, 661.962 295.266 C 654.159 291.362, 647.397 290.507, 640.186 292.513 M 775 308.142 L 775 323.283 785.750 322.767 C 803.093 321.935, 807.500 318.841, 807.500 307.500 C 807.500 295.891, 803.219 293, 786.032 293 L 775 293 775 308.142" stroke="none" fill="#1b1b1b" fill-rule="evenodd"/><path d="M 309 43 L 309 84 342 84 L 375 84 374.978 63.250 C 374.959 44.949, 374.729 42.001, 373.035 38.268 C 368.627 28.557, 355.206 17.879, 338.786 11.018 C 329.791 7.260, 313.228 2, 310.388 2 C 309.227 2, 309 8.691, 309 43 M 549 102.952 C 535.059 105.703, 527.861 120.383, 534.250 133.030 C 536.906 138.287, 541.293 141.457, 548.937 143.644 C 559.117 146.557, 565.062 149.903, 566.601 153.588 C 568.308 157.674, 568.368 161.040, 566.825 166.191 C 563.414 177.574, 545.532 177.927, 540.105 166.718 C 538.947 164.326, 538 161.611, 538 160.684 C 538 159.358, 537.056 159, 533.563 159 L 529.126 159 529.707 162.750 C 530.612 168.586, 533.942 174.854, 537.632 177.669 C 549.888 187.016, 567.494 183.639, 574.204 170.653 C 577.384 164.500, 577.292 154.926, 573.997 149.039 C 570.766 143.266, 567.028 140.841, 555.384 136.961 C 543.563 133.023, 540.974 130.952, 540.290 124.883 C 539.256 115.707, 544.897 110.412, 554.832 111.236 C 559.453 111.619, 560.790 112.201, 563.168 114.862 C 564.937 116.841, 566 119.152, 566 121.016 C 566 123.886, 566.172 124, 570.500 124 C 575.462 124, 575.600 123.736, 573.896 117.500 C 571.032 107.013, 560.275 100.727, 549 102.952 M 615.594 103.016 C 603.439 105.154, 591.527 114.373, 586.180 125.782 C 583.782 130.898, 583.500 132.659, 583.500 142.500 C 583.500 152.766, 583.710 153.944, 586.651 160.151 C 593.963 175.583, 609.017 183.964, 627.195 182.722 C 635.982 182.122, 643.445 179.183, 649.354 173.994 C 653.305 170.525, 659 162.895, 659 161.070 C 659 160.481, 657.133 160, 654.850 160 C 651.187 160, 650.149 160.575, 645.999 164.904 C 638.802 172.410, 634.204 174.402, 624 174.436 C 617.121 174.459, 614.616 174.028, 610.864 172.176 C 603.410 168.496, 598.375 163.508, 594.816 156.279 C 592.019 150.597, 591.558 148.615, 591.611 142.517 C 591.723 129.843, 598.171 119.503, 609.415 113.967 C 621.234 108.149, 635.961 110.119, 644.502 118.660 C 646.976 121.134, 649 123.572, 649 124.079 C 649 124.586, 651.250 125, 654 125 C 656.750 125, 659 124.656, 659 124.237 C 659 123.817, 657.392 121.086, 655.427 118.168 C 647.714 106.715, 630.908 100.322, 615.594 103.016 M 461 143 L 461 182 465 182 L 469 182 469 164.500 L 469 147 484 147 L 499 147 499 143 L 499 139 484 139 L 469 139 469 125.500 L 469 112 484.500 112 L 500 112 500 108 L 500 104 480.500 104 L 461 104 461 143 M 512 143 L 512 182 515.500 182 L 519 182 519 143 L 519 104 515.500 104 L 512 104 512 143 M 678.500 141.684 C 669.700 162.378, 662.355 179.915, 662.177 180.655 C 661.943 181.627, 663.075 182, 666.261 182 L 670.670 182 676.125 169.250 L 681.580 156.500 699.500 156.500 L 717.420 156.500 722.875 169.250 L 728.330 182 732.782 182 C 736.852 182, 737.185 181.815, 736.668 179.838 C 736.357 178.649, 728.992 161.111, 720.301 140.865 L 704.500 104.055 699.500 104.057 L 694.500 104.059 678.500 141.684 M 745.238 142.750 L 745.500 181.500 765.750 181.771 L 786 182.041 786 178.021 L 786 174 770 174 L 754 174 754 139 L 754 104 749.488 104 L 744.977 104 745.238 142.750 M 692.266 131.504 L 685.192 148 699.096 148 C 706.743 148, 713 147.625, 713 147.168 C 713 146.169, 700.548 116.214, 699.837 115.504 C 699.564 115.231, 696.157 122.431, 692.266 131.504 M 587.304 194.461 C 568.517 198.681, 557.110 214.820, 558.203 235.638 C 558.580 242.835, 559.160 244.984, 562.496 251.557 C 566.849 260.133, 571.359 264.414, 580.570 268.714 C 585.860 271.183, 587.634 271.483, 597 271.491 C 606.291 271.499, 608.154 271.194, 613.175 268.840 C 619.948 265.665, 626.670 259.711, 629.830 254.088 L 632.128 250 627.764 250 C 623.842 250, 622.838 250.544, 617.858 255.367 C 610.854 262.152, 604.615 264.457, 595.116 263.773 C 586.609 263.160, 579.716 259.703, 573.734 253.050 C 568.321 247.029, 566 240.861, 566 232.500 C 566 223.947, 568.350 217.873, 574.086 211.596 C 580.663 204.400, 587.050 201.619, 597 201.619 C 606.539 201.619, 613.494 204.482, 618.914 210.639 C 622.278 214.461, 623.261 215, 626.876 215 C 629.144 215, 631 214.519, 631 213.930 C 631 211.773, 624.929 204.121, 620.821 201.100 C 611.861 194.511, 598.694 191.902, 587.304 194.461 M 971.236 193.932 C 965.678 195.330, 960.401 199.541, 958.008 204.484 C 956.207 208.204, 955.853 210.349, 956.183 215.539 C 956.824 225.601, 960.991 229.831, 974.801 234.438 C 985 237.841, 988.809 240.298, 990.627 244.649 C 995.692 256.771, 982.695 268.220, 970.460 262.414 C 966.704 260.632, 964.871 258.234, 963.074 252.750 C 961.895 249.154, 961.660 249, 957.343 249 L 952.841 249 953.542 252.250 C 956.283 264.950, 964.657 272, 977 272 C 983.814 272, 989.151 269.889, 993.621 265.425 C 998.716 260.338, 1000.338 255.653, 999.820 247.520 C 999.147 236.943, 994.148 231.740, 980.494 227.404 C 969.718 223.982, 967.060 222.388, 965.365 218.330 C 962.790 212.169, 965.453 205.437, 971.622 202.509 C 978.862 199.074, 987.966 203.675, 989.436 211.512 C 990.096 215.029, 990.205 215.103, 994.306 214.805 C 998.449 214.504, 998.496 214.457, 998.150 211.014 C 997.740 206.936, 994.999 201.190, 992.356 198.871 C 987.352 194.478, 977.871 192.261, 971.236 193.932 M 462 233 L 462 271 466 271 L 470 271 470 233 L 470 195 466 195 L 462 195 462 233 M 486 232.948 L 486 271 489.500 271 L 493 271 493 239 C 493 220.294, 493.380 207, 493.916 207 C 494.420 207, 504.568 221.400, 516.469 239 L 538.106 271 542.053 271 L 546 271 546 233 L 546 195 542 195 L 538 195 538 225 C 538 241.500, 537.663 254.989, 537.250 254.975 C 536.837 254.961, 527.494 241.574, 516.486 225.225 L 496.473 195.500 491.236 195.198 L 486 194.895 486 232.948 M 642 233 L 642 271 663 271 L 684 271 684 267 L 684 263 667 263 L 650 263 650 249.500 L 650 236 666.500 236 L 683 236 683 232 L 683 228 666.500 228 L 650 228 650 215 L 650 202 667 202 L 684 202 684 198.500 L 684 195 663 195 L 642 195 642 233 M 695 232.950 L 695 271 699 271 L 703 271 703 239 C 703 221.400, 703.337 207.019, 703.750 207.041 C 704.163 207.064, 714.150 221.464, 725.945 239.041 L 747.390 271 751.695 271 L 756 271 756 233 L 756 195 751.515 195 L 747.029 195 746.765 224.867 L 746.500 254.733 726.483 225.117 L 706.466 195.500 700.733 195.200 L 695 194.900 695 232.950 M 763 198.500 L 763 202 771.500 202 L 780 202 780 236.500 L 780 271 784 271 L 788 271 788 236.500 L 788 202 797 202 L 806 202 806 198.500 L 806 195 784.500 195 L 763 195 763 198.500 M 813 233 L 813 271 817 271 L 821 271 821 233 L 821 195 817 195 L 813 195 813 233 M 829.042 195.695 C 829.065 196.138, 835.945 213.150, 844.331 233.500 L 859.577 270.500 863.630 270.800 L 867.684 271.100 882.938 234.300 C 891.328 214.060, 898.432 196.910, 898.726 196.190 C 899.132 195.194, 898.109 194.954, 894.464 195.190 L 889.668 195.500 877.535 225.500 C 870.862 242, 865.050 256.400, 864.618 257.500 C 864.021 259.021, 860.765 251.836, 851.025 227.500 L 838.217 195.500 833.608 195.195 C 831.074 195.028, 829.019 195.253, 829.042 195.695 M 906.238 232.750 L 906.500 270.500 927.250 270.770 L 948 271.041 948 267.020 L 948 263 931.500 263 L 915 263 915 249.500 L 915 236 931 236 L 947 236 947 232 L 947 228 931 228 L 915 228 915 215 L 915 202 931.500 202 L 948 202 948 198.500 L 948 195 926.988 195 L 905.976 195 906.238 232.750" stroke="none" fill="#b41c3c" fill-rule="evenodd"/></svg>